HIERARCHY
ROOT Hips
{
	OFFSET 0.000000 0.000000 0.000000
	CHANNELS 6 Xposition Yposition Zposition Xrotation Yrotation Zrotation
	JOINT LeftUpLeg_virtual
	{
		OFFSET 0.000000 0.000000 0.000000
		CHANNELS 3 Xrotation Yrotation Zrotation
		JOINT LeftUpLeg
		{
			OFFSET 10.205400 -3.823500 0.155100
			CHANNELS 3 Xrotation Yrotation Zrotation
			JOINT LeftLeg
			{
				OFFSET 0.708757 -12.982077 0.567790
				CHANNELS 3 Xrotation Yrotation Zrotation
				JOINT LeftFoot
				{
					OFFSET -0.708756 -10.717838 -2.184338
					CHANNELS 3 Xrotation Yrotation Zrotation
					JOINT LeftToeBase
					{
						OFFSET 0.108149 -7.191104 7.560241
						CHANNELS 3 Xrotation Yrotation Zrotation
						JOINT LeftToe_End
						{
							OFFSET 0.070230 0.081724 4.490308
							CHANNELS 3 Xrotation Yrotation Zrotation
							End Site
							{
								OFFSET 0 0 0
							}
						}
					}
				}
			}
		}
	}
	JOINT RightUpLeg_virtual
	{
		OFFSET 0.000000 0.000000 0.000000
		CHANNELS 3 Xrotation Yrotation Zrotation
		JOINT RightUpLeg
		{
			OFFSET -10.205400 -3.823500 0.005500
			CHANNELS 3 Xrotation Yrotation Zrotation
			JOINT RightLeg
			{
				OFFSET -0.708756 -12.982134 0.610632
				CHANNELS 3 Xrotation Yrotation Zrotation
				JOINT RightFoot
				{
					OFFSET 0.708754 -10.717769 -1.945823
					CHANNELS 3 Xrotation Yrotation Zrotation
					JOINT RightToeBase
					{
						OFFSET -0.108140 -7.191069 7.372968
						CHANNELS 3 Xrotation Yrotation Zrotation
						JOINT RightToe_End
						{
							OFFSET -0.070227 0.081735 4.479403
							CHANNELS 3 Xrotation Yrotation Zrotation
							End Site
							{
								OFFSET 0 0 0
							}
						}
					}
				}
			}
		}
	}
	JOINT Spine_virtual
	{
		OFFSET 0.000000 0.000000 0.000000
		CHANNELS 3 Xrotation Yrotation Zrotation
		JOINT Spine
		{
			OFFSET 0.000000 6.876099 0.125700
			CHANNELS 3 Xrotation Yrotation Zrotation
			JOINT Spine1
			{
				OFFSET 0.000000 5.730043 0.104720
				CHANNELS 3 Xrotation Yrotation Zrotation
				JOINT Spine1_split
				{
					OFFSET 0.000000 5.730043 0.104720
					CHANNELS 3 Xrotation Yrotation Zrotation
					JOINT Spine2
					{
						OFFSET 0.000000 5.730043 0.104720
						CHANNELS 3 Xrotation Yrotation Zrotation
						JOINT Neck_virtual
						{
							OFFSET 0.000000 0.000000 0.000000
							CHANNELS 3 Xrotation Yrotation Zrotation
							JOINT Neck
							{
								OFFSET 0.000000 10.314075 0.188496
								CHANNELS 3 Xrotation Yrotation Zrotation
								JOINT Head
								{
									OFFSET 0.000000 7.643700 -2.377400
									CHANNELS 3 Xrotation Yrotation Zrotation
									JOINT HeadTop_End
									{
										OFFSET 0.000000 43.788605 -13.619600
										CHANNELS 3 Xrotation Yrotation Zrotation
										End Site
										{
											OFFSET 0 0 0
										}
									}
								}
							}
						}
						JOINT LeftShoulder_virtual
						{
							OFFSET 0.000000 0.000000 0.000000
							CHANNELS 3 Xrotation Yrotation Zrotation
							JOINT LeftShoulder
							{
								OFFSET 2.196100 4.412489 0.087492
								CHANNELS 3 Xrotation Yrotation Zrotation
								JOINT LeftShoulder_split
								{
									OFFSET 2.196100 4.412489 0.087492
									CHANNELS 3 Xrotation Yrotation Zrotation
									JOINT LeftArm
									{
										OFFSET 8.771219 -2.981674 -0.026999
										CHANNELS 3 Xrotation Yrotation Zrotation
										JOINT LeftForeArm
										{
											OFFSET 8.512804 0.000000 -0.000000
											CHANNELS 3 Xrotation Yrotation Zrotation
											JOINT LeftHand
											{
												OFFSET 18.484802 0.000000 -0.000000
												CHANNELS 3 Xrotation Yrotation Zrotation
												End Site
												{
													OFFSET 0 0 0
												}
											}
										}
									}
								}
							}
						}
						JOINT RightShoulder_virtual
						{
							OFFSET 0.000000 0.000000 0.000000
							CHANNELS 3 Xrotation Yrotation Zrotation
							JOINT RightShoulder
							{
								OFFSET -2.196100 4.412496 0.070690
								CHANNELS 3 Xrotation Yrotation Zrotation
								JOINT RightShoulder_split
								{
									OFFSET -2.196100 4.412496 0.070690
									CHANNELS 3 Xrotation Yrotation Zrotation
									JOINT RightArm
									{
										OFFSET -8.771282 -2.981682 -0.094208
										CHANNELS 3 Xrotation Yrotation Zrotation
										JOINT RightForeArm
										{
											OFFSET -8.494598 0.000000 0.000000
											CHANNELS 3 Xrotation Yrotation Zrotation
											JOINT RightHand
											{
												OFFSET -18.483803 0.000000 0.000001
												CHANNELS 3 Xrotation Yrotation Zrotation
												End Site
												{
													OFFSET 0 0 0
												}
											}
										}
									}
								}
							}
						}
					}
				}
			}
		}
	}
}
MOTION
Frames: 8
Frame Time: 0.03333333
0.073526 27.711159 -1.823779 0.000000 0.000000 0.000000 8.340400 -0.300720 -1.973189 17.580234 6.847465 12.854895 36.248787 -4.880374 13.765229 -30.237770 0.664125 -11.220666 -26.005640 -0.509869 -4.082431 0.000000 0.000000 0.000000 9.786820 2.795132 -2.592651 -66.457474 0.595798 -3.035652 69.683837 -6.624620 -0.447571 -4.458675 2.761430 -12.303140 -1.877821 0.676680 -0.668849 0.000000 0.000000 0.000000 8.537841 -0.121722 -2.198894 1.230528 -3.976783 2.729238 1.781906 -2.652248 2.555474 0.789720 -1.780706 -0.059369 0.000000 0.000000 0.000000 2.827653 -2.597031 2.706415 -3.710895 1.287818 -1.417929 -17.078675 -5.583815 7.531422 0.000000 0.000000 0.000000 3.243746 -2.802247 1.903770 -1.259179 2.625328 -3.310188 -2.867027 2.936077 -2.405671 -14.430989 5.519307 -58.252785 -178.960928 -73.656644 -177.259351 0.000000 0.000000 0.000000 4.505959 -2.188935 2.673247 0.911143 -8.543110 16.513161 -3.111767 4.497179 1.584240 -23.033170 8.023017 53.836313 -171.189047 56.618423 171.513905 0.000000 0.000000 0.000000 
-0.276562 28.362024 -1.845390 0.000000 0.000000 0.000000 8.520527 0.218563 -1.844914 15.739758 5.696274 12.225626 37.760288 -3.746876 13.445468 -22.412352 0.797046 -11.680353 -23.558777 0.269758 -5.632853 0.000000 0.000000 0.000000 9.483175 2.315456 -2.490925 -66.227058 0.039746 -4.548719 69.072200 -6.019347 0.114614 -3.387571 3.000306 -11.925470 -1.425181 0.765847 -0.477175 0.000000 0.000000 0.000000 8.674137 0.201976 -2.203112 1.227076 -3.811861 3.056264 1.848458 -2.617782 2.345945 0.416334 -0.730299 -0.723107 0.000000 0.000000 0.000000 2.824979 -2.516833 2.422168 -3.662557 1.419311 -1.769112 -16.298377 -5.494971 7.717265 0.000000 0.000000 0.000000 3.426176 -2.738172 1.768722 -1.156033 1.478886 -2.231086 -2.861278 1.651167 -1.331120 -18.776707 4.006115 -57.883777 -178.255670 -73.987041 -176.526485 0.000000 0.000000 0.000000 4.739693 -2.088382 2.424495 0.844524 -7.951764 15.983701 -4.431948 5.115932 0.506486 -27.170388 9.654992 53.575782 -172.567147 54.973587 172.573650 0.000000 0.000000 0.000000 
-0.463017 29.641832 -1.753460 0.000000 0.000000 0.000000 8.216857 1.504369 -2.091357 10.735799 5.597915 11.883259 40.377394 -1.788809 11.677886 -8.926367 0.562202 -9.440382 -14.678338 0.476751 -7.130487 0.000000 0.000000 0.000000 8.930979 1.903109 -2.636327 -63.521292 0.053121 -5.460411 63.528546 -4.704602 0.191447 -0.178871 3.147163 -10.891890 -2.086696 0.731530 -0.165364 0.000000 0.000000 0.000000 8.531239 0.767514 -2.073530 1.901643 -3.074045 3.582552 1.925033 -2.400620 1.796512 0.330304 0.361229 -0.895524 0.000000 0.000000 0.000000 2.747278 -2.249982 1.750118 -3.331567 1.500776 -2.171445 -14.712656 -5.704169 8.065868 0.000000 0.000000 0.000000 3.591372 -2.438952 1.382793 -0.974267 -0.536467 -1.042301 -2.270439 1.072459 -0.826135 -25.812110 0.352003 -56.835435 -176.542946 -76.133428 -174.940337 0.000000 0.000000 0.000000 4.875557 -1.856266 1.844792 0.887197 -7.279253 14.658421 -4.637021 4.163477 0.175111 -35.089147 12.862336 53.364490 -172.925363 56.060267 172.832473 0.000000 0.000000 0.000000 
-0.387880 31.244680 -1.541936 0.000000 0.000000 0.000000 7.558603 2.796133 -2.619612 3.664545 5.983710 11.590101 44.531963 0.547427 9.508958 6.088511 0.970567 -5.503804 -2.861477 0.060818 -8.278585 0.000000 0.000000 0.000000 8.094391 2.010690 -3.015091 -58.012137 0.389698 -5.442820 54.334862 -3.199307 0.389213 4.628007 3.128862 -9.667364 -4.902542 0.540599 0.165631 0.000000 0.000000 0.000000 7.966942 1.518406 -1.818436 3.095450 -2.006995 4.067322 2.112500 -2.060667 1.147324 0.221665 1.233948 -0.439094 0.000000 0.000000 0.000000 2.740833 -1.832858 1.024188 -2.789791 1.584167 -2.599821 -12.791112 -6.084353 8.521693 0.000000 0.000000 0.000000 3.764925 -1.981539 0.980768 -0.721497 -3.091518 0.189643 -1.771807 1.410856 -0.880900 -34.495054 -4.696082 -56.138595 -173.246574 -80.240666 -171.928839 0.000000 0.000000 0.000000 4.953759 -1.542213 1.179571 0.940048 -6.743351 12.520840 -4.007183 2.293018 0.099190 -45.082445 16.568782 53.920939 -172.443316 59.840011 172.535728 0.000000 0.000000 0.000000 
-0.248542 32.869267 -1.078768 0.000000 0.000000 0.000000 6.440209 3.767325 -2.982714 -4.701051 6.325883 10.822349 50.812981 2.805147 7.721194 17.331499 1.531727 -1.313955 6.153008 -0.506878 -8.208062 0.000000 0.000000 0.000000 6.842055 2.821131 -3.390654 -50.523722 0.538886 -4.709265 43.680159 -1.976189 1.019317 9.807309 3.177964 -8.088780 -9.612755 0.212896 0.340708 0.000000 0.000000 0.000000 6.971802 2.533601 -1.548290 4.674345 -0.928772 4.239273 2.491041 -1.678491 0.659927 0.451731 1.552756 0.191335 0.000000 0.000000 0.000000 2.917273 -1.368056 0.540225 -2.078213 1.644963 -3.009856 -10.876244 -6.489199 9.038159 0.000000 0.000000 0.000000 4.028277 -1.476978 0.802944 -0.459094 -5.659257 1.680026 -1.690900 2.015994 -1.358968 -44.288934 -10.245110 -56.474401 -162.616067 -85.734187 -161.616701 0.000000 0.000000 0.000000 4.995204 -1.234681 0.722937 0.929069 -6.439429 9.391857 -3.148861 0.621234 -0.207365 -55.747499 19.577655 55.436660 -170.931467 66.130937 171.461900 0.000000 0.000000 0.000000 
-0.178682 34.160389 -0.392448 0.000000 0.000000 0.000000 4.693796 4.587695 -2.904190 -13.403376 6.289610 8.839728 60.789790 4.930923 6.936074 22.664244 1.149371 2.588837 9.581546 -0.899449 -6.658883 0.000000 0.000000 0.000000 5.041642 3.934883 -3.518973 -42.468019 0.256833 -3.459644 34.107110 -1.150551 2.064089 13.472136 3.554920 -6.100150 -14.394286 -0.222708 0.354133 0.000000 0.000000 0.000000 5.347805 3.576960 -1.315823 6.477722 -0.157788 3.894918 3.038527 -1.348214 0.507758 0.841624 1.714503 0.610080 0.000000 0.000000 0.000000 3.354546 -0.974855 0.480892 -1.237511 1.664591 -3.352986 -9.113725 -6.725428 9.610997 0.000000 0.000000 0.000000 4.370153 -1.030057 0.994093 -0.234878 -7.653692 3.684594 -1.765247 2.502254 -1.772700 -54.402645 -14.714425 -58.033003 -30.204797 -87.911187 -29.508729 0.000000 0.000000 0.000000 5.113293 -1.019573 0.639675 0.842378 -6.421975 5.113039 -2.717662 -0.685909 -0.895012 -65.683163 21.190976 57.796542 -167.786821 74.305478 168.996078 0.000000 0.000000 0.000000 
-0.176599 34.915131 0.325471 0.000000 0.000000 0.000000 2.581008 5.212913 -2.372011 -22.213602 5.699281 5.052386 74.978784 7.139428 7.079672 23.360780 -0.025878 5.694417 9.634598 -1.110328 -4.552415 0.000000 0.000000 0.000000 2.821728 4.982168 -3.062344 -35.238852 -0.432455 -2.086764 27.541560 -0.510161 3.139165 14.013096 4.465888 -4.024092 -17.458343 -0.642642 0.135622 0.000000 0.000000 0.000000 3.376076 4.423337 -1.113652 8.323131 0.174106 3.079393 3.682631 -1.124328 0.703902 0.886223 1.968946 0.584572 0.000000 0.000000 0.000000 3.923797 -0.710135 0.850180 -0.265570 1.595650 -3.595399 -7.478484 -6.777324 10.230300 0.000000 0.000000 0.000000 4.808835 -0.726525 1.512130 0.055015 -8.693045 6.284315 -1.926839 2.625957 -1.739274 -64.069954 -17.043303 -60.215815 -4.940666 -82.935504 -4.478434 0.000000 0.000000 0.000000 5.278627 -0.931925 0.879910 0.661919 -6.554958 -0.172725 -2.691444 -1.510344 -1.927090 -74.693036 20.997098 60.571169 -158.278665 83.244918 160.160696 0.000000 0.000000 0.000000 
-0.311899 34.990334 0.950831 0.000000 0.000000 0.000000 0.199898 5.438764 -1.498000 -32.287523 5.207167 0.571275 90.692959 9.754330 7.167444 22.599721 -0.810560 7.569242 8.739696 -1.037345 -2.541835 0.000000 0.000000 0.000000 0.377736 5.280693 -2.147683 -30.003891 -1.568559 -0.781222 24.856665 0.029119 3.970273 10.760225 5.610456 -2.164820 -17.782230 -0.915403 -0.195992 0.000000 0.000000 0.000000 1.122787 4.989778 -0.954474 10.194741 0.063668 1.962810 4.271379 -1.015329 1.109619 0.727384 2.159246 0.123786 0.000000 0.000000 0.000000 4.378488 -0.613186 1.424250 0.946320 1.434740 -3.644965 -5.888551 -6.598478 10.878275 0.000000 0.000000 0.000000 5.209116 -0.604318 2.133948 0.383027 -8.777259 9.486172 -1.967127 2.473146 -1.114647 -72.383770 -17.124182 -62.224519 0.024048 -79.508402 0.293597 0.000000 0.000000 0.000000 5.458244 -0.942156 1.289229 0.416117 -6.696716 -6.209829 -2.986840 -1.599715 -2.410870 -82.338012 19.018739 63.301237 -39.011373 87.653648 41.370797 0.000000 0.000000 0.000000 
